<svg width="128" height="128" viewBox="0 0 128 128" fill="none" xmlns="http://www.w3.org/2000/svg">
<path d="M0 5.12C0 3.76209 0.539427 2.4598 1.49961 1.49961C2.4598 0.539427 3.76209 0 5.12 0V5.12H0Z" fill="#18243D"/>
<path d="M5.12 0H10.24V5.12H5.12V0Z" fill="#18243D"/>
<path d="M10.24 0H15.36V5.12H10.24V0Z" fill="#18243D"/>
<path d="M15.36 0H20.48V5.12H15.36V0Z" fill="#18243D"/>
<path d="M20.48 0H25.6V5.12H20.48V0Z" fill="#18243D"/>
<path d="M25.6 0H30.72V5.12H25.6V0Z" fill="#18243D"/>
<path d="M30.72 0C32.0779 0 33.3802 0.539427 34.3404 1.49961C35.3006 2.4598 35.84 3.76209 35.84 5.12H30.72V0Z" fill="#18243D"/>
<path d="M53.76 0C54.439 0 55.0901 0.269714 55.5702 0.749807C56.0503 1.2299 56.32 1.88105 56.32 2.56C56.32 3.23895 56.0503 3.8901 55.5702 4.37019C55.0901 4.85029 54.439 5.12 53.76 5.12C53.081 5.12 52.4299 4.85029 51.9498 4.37019C51.4697 3.8901 51.2 3.23895 51.2 2.56C51.2 1.88105 51.4697 1.2299 51.9498 0.749807C52.4299 0.269714 53.081 0 53.76 0Z" fill="#18243D"/>
<path d="M61.44 5.12C61.44 3.76209 61.9794 2.4598 62.9396 1.49961C63.8998 0.539427 65.2021 0 66.56 0V5.12H61.44Z" fill="#18243D"/>
<path d="M69.12 0C69.799 0 70.4501 0.269714 70.9302 0.749807C71.4103 1.2299 71.68 1.88105 71.68 2.56C71.68 3.23895 71.4103 3.8901 70.9302 4.37019C70.4501 4.85029 69.799 5.12 69.12 5.12H66.56V0H69.12Z" fill="#18243D"/>
<path d="M92.16 5.12C92.16 3.76209 92.6994 2.4598 93.6596 1.49961C94.6198 0.539427 95.9221 0 97.28 0V5.12H92.16Z" fill="#18243D"/>
<path d="M97.28 0H102.4V5.12H97.28V0Z" fill="#18243D"/>
<path d="M102.4 0H107.52V5.12H102.4V0Z" fill="#18243D"/>
<path d="M107.52 0H112.64V5.12H107.52V0Z" fill="#18243D"/>
<path d="M112.64 0H117.76V5.12H112.64V0Z" fill="#18243D"/>
<path d="M117.76 0H122.88V5.12H117.76V0Z" fill="#18243D"/>
<path d="M122.88 0C124.238 0 125.54 0.539427 126.5 1.49961C127.461 2.4598 128 3.76209 128 5.12H122.88V0Z" fill="#18243D"/>
<path d="M0 5.12H5.12V10.24H0V5.12Z" fill="#18243D"/>
<path d="M30.72 5.12H35.84V10.24H30.72V5.12Z" fill="#18243D"/>
<path d="M40.96 10.24C40.96 8.88209 41.4994 7.5798 42.4596 6.61961C43.4198 5.65943 44.7221 5.12 46.08 5.12V10.24H40.96Z" fill="#18243D"/>
<path d="M46.08 5.12C47.4379 5.12 48.7402 5.65943 49.7004 6.61961C50.6606 7.5798 51.2 8.88209 51.2 10.24H46.08V5.12Z" fill="#18243D"/>
<path d="M58.88 5.12C58.201 5.12 57.5499 5.38971 57.0698 5.86981C56.5897 6.3499 56.32 7.00105 56.32 7.68C56.32 8.35895 56.5897 9.0101 57.0698 9.49019C57.5499 9.97029 58.201 10.24 58.88 10.24H61.44V5.12H58.88Z" fill="#18243D"/>
<path d="M61.44 5.12H66.56V10.24H61.44V5.12Z" fill="#18243D"/>
<path d="M74.24 5.12C74.919 5.12 75.5701 5.38971 76.0502 5.86981C76.5303 6.3499 76.8 7.00105 76.8 7.68C76.8 8.35895 76.5303 9.0101 76.0502 9.49019C75.5701 9.97029 74.919 10.24 74.24 10.24C73.5611 10.24 72.9099 9.97029 72.4298 9.49019C71.9497 9.0101 71.68 8.35895 71.68 7.68C71.68 7.00105 71.9497 6.3499 72.4298 5.86981C72.9099 5.38971 73.5611 5.12 74.24 5.12Z" fill="#18243D"/>
<path d="M81.92 7.68C81.92 7.00105 82.1897 6.3499 82.6698 5.86981C83.1499 5.38971 83.801 5.12 84.48 5.12C85.159 5.12 85.8101 5.38971 86.2902 5.86981C86.7703 6.3499 87.04 7.00105 87.04 7.68V10.24H81.92V7.68Z" fill="#18243D"/>
<path d="M92.16 5.12H97.28V10.24H92.16V5.12Z" fill="#18243D"/>
<path d="M122.88 5.12H128V10.24H122.88V5.12Z" fill="#18243D"/>
<path d="M0 10.24H5.12V15.36H0V10.24Z" fill="#18243D"/>
<path d="M10.24 15.36C10.24 14.0021 10.7794 12.6998 11.7396 11.7396C12.6998 10.7794 14.0021 10.24 15.36 10.24V15.36H10.24Z" fill="#18243D"/>
<path d="M15.36 10.24H20.48V15.36H15.36V10.24Z" fill="#18243D"/>
<path d="M20.48 10.24C21.8379 10.24 23.1402 10.7794 24.1004 11.7396C25.0606 12.6998 25.6 14.0021 25.6 15.36H20.48V10.24Z" fill="#18243D"/>
<path d="M30.72 10.24H35.84V15.36H30.72V10.24Z" fill="#18243D"/>
<path d="M40.96 10.24H46.08V15.36H40.96V10.24Z" fill="#18243D"/>
<path d="M46.08 15.36C47.4379 15.36 48.7402 14.8206 49.7004 13.8604C50.6606 12.9002 51.2 11.5979 51.2 10.24H46.08V15.36Z" fill="#18243D"/>
<path d="M61.44 10.24H66.56V15.36H61.44V10.24Z" fill="#18243D"/>
<path d="M81.92 10.24H87.04V15.36H81.92V10.24Z" fill="#18243D"/>
<path d="M92.16 10.24H97.28V15.36H92.16V10.24Z" fill="#18243D"/>
<path d="M102.4 15.36C102.4 14.0021 102.939 12.6998 103.9 11.7396C104.86 10.7794 106.162 10.24 107.52 10.24V15.36H102.4Z" fill="#18243D"/>
<path d="M107.52 10.24H112.64V15.36H107.52V10.24Z" fill="#18243D"/>
<path d="M112.64 10.24C113.998 10.24 115.3 10.7794 116.26 11.7396C117.221 12.6998 117.76 14.0021 117.76 15.36H112.64V10.24Z" fill="#18243D"/>
<path d="M122.88 10.24H128V15.36H122.88V10.24Z" fill="#18243D"/>
<path d="M0 15.36H5.12V20.48H0V15.36Z" fill="#18243D"/>
<path d="M10.24 15.36H15.36V20.48H10.24V15.36Z" fill="#18243D"/>
<path d="M15.36 15.36H20.48V20.48H15.36V15.36Z" fill="#18243D"/>
<path d="M20.48 15.36H25.6V20.48H20.48V15.36Z" fill="#18243D"/>
<path d="M30.72 15.36H35.84V20.48H30.72V15.36Z" fill="#18243D"/>
<path d="M40.96 15.36H46.08V20.48H40.96V15.36Z" fill="#18243D"/>
<path d="M58.88 15.36C58.201 15.36 57.5499 15.6297 57.0698 16.1098C56.5897 16.5899 56.32 17.241 56.32 17.92C56.32 18.599 56.5897 19.2501 57.0698 19.7302C57.5499 20.2103 58.201 20.48 58.88 20.48H61.44V15.36H58.88Z" fill="#18243D"/>
<path d="M61.44 20.48C62.7979 20.48 64.1002 19.9406 65.0604 18.9804C66.0206 18.0202 66.56 16.7179 66.56 15.36H61.44V20.48Z" fill="#18243D"/>
<path d="M71.68 17.92C71.68 17.241 71.9497 16.5899 72.4298 16.1098C72.9099 15.6297 73.5611 15.36 74.24 15.36C74.919 15.36 75.5701 15.6297 76.0502 16.1098C76.5303 16.5899 76.8 17.241 76.8 17.92V20.48H71.68V17.92Z" fill="#18243D"/>
<path d="M81.92 15.36H87.04V20.48H81.92V15.36Z" fill="#18243D"/>
<path d="M92.16 15.36H97.28V20.48H92.16V15.36Z" fill="#18243D"/>
<path d="M102.4 15.36H107.52V20.48H102.4V15.36Z" fill="#18243D"/>
<path d="M107.52 15.36H112.64V20.48H107.52V15.36Z" fill="#18243D"/>
<path d="M112.64 15.36H117.76V20.48H112.64V15.36Z" fill="#18243D"/>
<path d="M122.88 15.36H128V20.48H122.88V15.36Z" fill="#18243D"/>
<path d="M0 20.48H5.12V25.6H0V20.48Z" fill="#18243D"/>
<path d="M10.24 20.48C10.24 21.8379 10.7794 23.1402 11.7396 24.1004C12.6998 25.0606 14.0021 25.6 15.36 25.6V20.48H10.24Z" fill="#18243D"/>
<path d="M15.36 20.48H20.48V25.6H15.36V20.48Z" fill="#18243D"/>
<path d="M20.48 25.6C21.8379 25.6 23.1402 25.0606 24.1004 24.1004C25.0606 23.1402 25.6 21.8379 25.6 20.48H20.48V25.6Z" fill="#18243D"/>
<path d="M30.72 20.48H35.84V25.6H30.72V20.48Z" fill="#18243D"/>
<path d="M40.96 20.48H46.08V25.6H40.96V20.48Z" fill="#18243D"/>
<path d="M48.64 20.48C49.319 20.48 49.9701 20.7497 50.4502 21.2298C50.9303 21.7099 51.2 22.361 51.2 23.04C51.2 23.719 50.9303 24.3701 50.4502 24.8502C49.9701 25.3303 49.319 25.6 48.64 25.6H46.08V20.48H48.64Z" fill="#18243D"/>
<path d="M66.56 25.6C66.56 24.2421 67.0994 22.9398 68.0596 21.9796C69.0198 21.0194 70.3221 20.48 71.68 20.48V25.6H66.56Z" fill="#18243D"/>
<path d="M71.68 20.48H76.8V25.6H71.68V20.48Z" fill="#18243D"/>
<path d="M76.8 20.48H81.92V25.6H76.8V20.48Z" fill="#18243D"/>
<path d="M81.92 20.48H87.04V25.6H81.92V20.48Z" fill="#18243D"/>
<path d="M92.16 20.48H97.28V25.6H92.16V20.48Z" fill="#18243D"/>
<path d="M102.4 20.48C102.4 21.8379 102.939 23.1402 103.9 24.1004C104.86 25.0606 106.162 25.6 107.52 25.6V20.48H102.4Z" fill="#18243D"/>
<path d="M107.52 20.48H112.64V25.6H107.52V20.48Z" fill="#18243D"/>
<path d="M112.64 25.6C113.998 25.6 115.3 25.0606 116.26 24.1004C117.221 23.1402 117.76 21.8379 117.76 20.48H112.64V25.6Z" fill="#18243D"/>
<path d="M122.88 20.48H128V25.6H122.88V20.48Z" fill="#18243D"/>
<path d="M0 25.6H5.12V30.72H0V25.6Z" fill="#18243D"/>
<path d="M30.72 25.6H35.84V30.72H30.72V25.6Z" fill="#18243D"/>
<path d="M40.96 25.6H46.08V30.72H40.96V25.6Z" fill="#18243D"/>
<path d="M51.2 28.16C51.2 27.481 51.4697 26.8299 51.9498 26.3498C52.4299 25.8697 53.081 25.6 53.76 25.6C54.439 25.6 55.0901 25.8697 55.5702 26.3498C56.0503 26.8299 56.32 27.481 56.32 28.16V30.72H51.2V28.16Z" fill="#18243D"/>
<path d="M66.56 25.6C66.56 26.9579 67.0994 28.2602 68.0596 29.2204C69.0198 30.1806 70.3221 30.72 71.68 30.72V25.6H66.56Z" fill="#18243D"/>
<path d="M71.68 25.6H76.8V30.72H71.68V25.6Z" fill="#18243D"/>
<path d="M81.92 25.6H87.04V30.72H81.92V25.6Z" fill="#18243D"/>
<path d="M92.16 25.6H97.28V30.72H92.16V25.6Z" fill="#18243D"/>
<path d="M122.88 25.6H128V30.72H122.88V25.6Z" fill="#18243D"/>
<path d="M0 30.72C0 32.0779 0.539427 33.3802 1.49961 34.3404C2.4598 35.3006 3.76209 35.84 5.12 35.84V30.72H0Z" fill="#18243D"/>
<path d="M5.12 30.72H10.24V35.84H5.12V30.72Z" fill="#18243D"/>
<path d="M10.24 30.72H15.36V35.84H10.24V30.72Z" fill="#18243D"/>
<path d="M15.36 30.72H20.48V35.84H15.36V30.72Z" fill="#18243D"/>
<path d="M20.48 30.72H25.6V35.84H20.48V30.72Z" fill="#18243D"/>
<path d="M25.6 30.72H30.72V35.84H25.6V30.72Z" fill="#18243D"/>
<path d="M30.72 35.84C32.0779 35.84 33.3802 35.3006 34.3404 34.3404C35.3006 33.3802 35.84 32.0779 35.84 30.72H30.72V35.84Z" fill="#18243D"/>
<path d="M40.96 33.28C40.96 33.959 41.2297 34.6101 41.7098 35.0902C42.1899 35.5703 42.841 35.84 43.52 35.84C44.199 35.84 44.8501 35.5703 45.3302 35.0902C45.8103 34.6101 46.08 33.959 46.08 33.28V30.72H40.96V33.28Z" fill="#18243D"/>
<path d="M51.2 30.72H56.32V35.84H51.2V30.72Z" fill="#18243D"/>
<path d="M64 30.72C64.679 30.72 65.3301 30.9897 65.8102 31.4698C66.2903 31.9499 66.56 32.601 66.56 33.28C66.56 33.959 66.2903 34.6101 65.8102 35.0902C65.3301 35.5703 64.679 35.84 64 35.84C63.321 35.84 62.6699 35.5703 62.1898 35.0902C61.7097 34.6101 61.44 33.959 61.44 33.28C61.44 32.601 61.7097 31.9499 62.1898 31.4698C62.6699 30.9897 63.321 30.72 64 30.72Z" fill="#18243D"/>
<path d="M71.68 33.28C71.68 33.959 71.9497 34.6101 72.4298 35.0902C72.9099 35.5703 73.5611 35.84 74.24 35.84C74.919 35.84 75.5701 35.5703 76.0502 35.0902C76.5303 34.6101 76.8 33.959 76.8 33.28V30.72H71.68V33.28Z" fill="#18243D"/>
<path d="M81.92 33.28C81.92 33.959 82.1897 34.6101 82.6698 35.0902C83.1499 35.5703 83.801 35.84 84.48 35.84C85.159 35.84 85.8101 35.5703 86.2902 35.0902C86.7703 34.6101 87.04 33.959 87.04 33.28V30.72H81.92V33.28Z" fill="#18243D"/>
<path d="M92.16 30.72C92.16 32.0779 92.6994 33.3802 93.6596 34.3404C94.6198 35.3006 95.9221 35.84 97.28 35.84V30.72H92.16Z" fill="#18243D"/>
<path d="M97.28 30.72H102.4V35.84H97.28V30.72Z" fill="#18243D"/>
<path d="M102.4 30.72H107.52V35.84H102.4V30.72Z" fill="#18243D"/>
<path d="M107.52 30.72H112.64V35.84H107.52V30.72Z" fill="#18243D"/>
<path d="M112.64 30.72H117.76V35.84H112.64V30.72Z" fill="#18243D"/>
<path d="M117.76 30.72H122.88V35.84H117.76V30.72Z" fill="#18243D"/>
<path d="M122.88 35.84C124.238 35.84 125.54 35.3006 126.5 34.3404C127.461 33.3802 128 32.0779 128 30.72H122.88V35.84Z" fill="#18243D"/>
<path d="M51.2 38.4C51.2 39.079 51.4697 39.7301 51.9498 40.2102C52.4299 40.6903 53.081 40.96 53.76 40.96C54.439 40.96 55.0901 40.6903 55.5702 40.2102C56.0503 39.7301 56.32 39.079 56.32 38.4V35.84H51.2V38.4Z" fill="#18243D"/>
<path d="M69.12 35.84C69.799 35.84 70.4501 36.1097 70.9302 36.5898C71.4103 37.0699 71.68 37.721 71.68 38.4C71.68 39.079 71.4103 39.7301 70.9302 40.2102C70.4501 40.6903 69.799 40.96 69.12 40.96C68.441 40.96 67.7899 40.6903 67.3098 40.2102C66.8297 39.7301 66.56 39.079 66.56 38.4C66.56 37.721 66.8297 37.0699 67.3098 36.5898C67.7899 36.1097 68.441 35.84 69.12 35.84Z" fill="#18243D"/>
<path d="M10.24 43.52C10.24 42.841 10.5097 42.1899 10.9898 41.7098C11.4699 41.2297 12.121 40.96 12.8 40.96C13.479 40.96 14.1301 41.2297 14.6102 41.7098C15.0903 42.1899 15.36 42.841 15.36 43.52V46.08H10.24V43.52Z" fill="#18243D"/>
<path d="M28.16 40.96C27.481 40.96 26.8299 41.2297 26.3498 41.7098C25.8697 42.1899 25.6 42.841 25.6 43.52C25.6 44.199 25.8697 44.8501 26.3498 45.3302C26.8299 45.8103 27.481 46.08 28.16 46.08H30.72V40.96H28.16Z" fill="#18243D"/>
<path d="M30.72 40.96H35.84V46.08H30.72V40.96Z" fill="#18243D"/>
<path d="M35.84 40.96H40.96V46.08H35.84V40.96Z" fill="#18243D"/>
<path d="M40.96 40.96H46.08V46.08H40.96V40.96Z" fill="#18243D"/>
<path d="M48.64 40.96C49.319 40.96 49.9701 41.2297 50.4502 41.7098C50.9303 42.1899 51.2 42.841 51.2 43.52C51.2 44.199 50.9303 44.8501 50.4502 45.3302C49.9701 45.8103 49.319 46.08 48.64 46.08H46.08V40.96H48.64Z" fill="#18243D"/>
<path d="M58.88 40.96C59.559 40.96 60.2101 41.2297 60.6902 41.7098C61.1703 42.1899 61.44 42.841 61.44 43.52C61.44 44.199 61.1703 44.8501 60.6902 45.3302C60.2101 45.8103 59.559 46.08 58.88 46.08C58.201 46.08 57.5499 45.8103 57.0698 45.3302C56.5897 44.8501 56.32 44.199 56.32 43.52C56.32 42.841 56.5897 42.1899 57.0698 41.7098C57.5499 41.2297 58.201 40.96 58.88 40.96Z" fill="#18243D"/>
<path d="M81.92 46.08C81.92 44.7221 82.4594 43.4198 83.4196 42.4596C84.3798 41.4994 85.6821 40.96 87.04 40.96V46.08H81.92Z" fill="#18243D"/>
<path d="M89.6 40.96C90.279 40.96 90.9301 41.2297 91.4102 41.7098C91.8903 42.1899 92.16 42.841 92.16 43.52C92.16 44.199 91.8903 44.8501 91.4102 45.3302C90.9301 45.8103 90.279 46.08 89.6 46.08H87.04V40.96H89.6Z" fill="#18243D"/>
<path d="M97.28 46.08C97.28 44.7221 97.8194 43.4198 98.7796 42.4596C99.7398 41.4994 101.042 40.96 102.4 40.96V46.08H97.28Z" fill="#18243D"/>
<path d="M102.4 40.96H107.52V46.08H102.4V40.96Z" fill="#18243D"/>
<path d="M107.52 40.96H112.64V46.08H107.52V40.96Z" fill="#18243D"/>
<path d="M112.64 40.96H117.76V46.08H112.64V40.96Z" fill="#18243D"/>
<path d="M117.76 40.96C119.118 40.96 120.42 41.4994 121.38 42.4596C122.341 43.4198 122.88 44.7221 122.88 46.08H117.76V40.96Z" fill="#18243D"/>
<path d="M2.56 46.08C3.23895 46.08 3.8901 46.3497 4.37019 46.8298C4.85029 47.3099 5.12 47.961 5.12 48.64C5.12 49.319 4.85029 49.9701 4.37019 50.4502C3.8901 50.9303 3.23895 51.2 2.56 51.2C1.88105 51.2 1.2299 50.9303 0.749807 50.4502C0.269714 49.9701 0 49.319 0 48.64C0 47.961 0.269714 47.3099 0.749807 46.8298C1.2299 46.3497 1.88105 46.08 2.56 46.08Z" fill="#18243D"/>
<path d="M10.24 46.08H15.36V51.2H10.24V46.08Z" fill="#18243D"/>
<path d="M35.84 46.08H40.96V51.2H35.84V46.08Z" fill="#18243D"/>
<path d="M40.96 46.08H46.08V51.2H40.96V46.08Z" fill="#18243D"/>
<path d="M64 46.08C63.321 46.08 62.6699 46.3497 62.1898 46.8298C61.7097 47.3099 61.44 47.961 61.44 48.64C61.44 49.319 61.7097 49.9701 62.1898 50.4502C62.6699 50.9303 63.321 51.2 64 51.2H66.56V46.08H64Z" fill="#18243D"/>
<path d="M66.56 46.08H71.68V51.2H66.56V46.08Z" fill="#18243D"/>
<path d="M71.68 46.08H76.8V51.2H71.68V46.08Z" fill="#18243D"/>
<path d="M76.8 46.08H81.92V51.2H76.8V46.08Z" fill="#18243D"/>
<path d="M81.92 46.08H87.04V51.2H81.92V46.08Z" fill="#18243D"/>
<path d="M97.28 46.08H102.4V51.2H97.28V46.08Z" fill="#18243D"/>
<path d="M102.4 51.2C103.758 51.2 105.06 50.6606 106.02 49.7004C106.981 48.7402 107.52 47.4379 107.52 46.08H102.4V51.2Z" fill="#18243D"/>
<path d="M117.76 46.08C117.76 47.4379 118.299 48.7402 119.26 49.7004C120.22 50.6606 121.522 51.2 122.88 51.2V46.08H117.76Z" fill="#18243D"/>
<path d="M122.88 46.08C124.238 46.08 125.54 46.6194 126.5 47.5796C127.461 48.5398 128 49.8421 128 51.2H122.88V46.08Z" fill="#18243D"/>
<path d="M7.68 51.2C7.00105 51.2 6.3499 51.4697 5.86981 51.9498C5.38971 52.4299 5.12 53.081 5.12 53.76C5.12 54.439 5.38971 55.0901 5.86981 55.5702C6.3499 56.0503 7.00105 56.32 7.68 56.32H10.24V51.2H7.68Z" fill="#18243D"/>
<path d="M10.24 51.2H15.36V56.32H10.24V51.2Z" fill="#18243D"/>
<path d="M15.36 51.2H20.48V56.32H15.36V51.2Z" fill="#18243D"/>
<path d="M23.04 51.2C23.719 51.2 24.3701 51.4697 24.8502 51.9498C25.3303 52.4299 25.6 53.081 25.6 53.76C25.6 54.439 25.3303 55.0901 24.8502 55.5702C24.3701 56.0503 23.719 56.32 23.04 56.32H20.48V51.2H23.04Z" fill="#18243D"/>
<path d="M33.28 51.2C32.601 51.2 31.9499 51.4697 31.4698 51.9498C30.9897 52.4299 30.72 53.081 30.72 53.76C30.72 54.439 30.9897 55.0901 31.4698 55.5702C31.9499 56.0503 32.601 56.32 33.28 56.32H35.84V51.2H33.28Z" fill="#18243D"/>
<path d="M35.84 51.2H40.96V56.32H35.84V51.2Z" fill="#18243D"/>
<path d="M40.96 51.2H46.08V56.32H40.96V51.2Z" fill="#18243D"/>
<path d="M53.76 51.2C53.081 51.2 52.4299 51.4697 51.9498 51.9498C51.4697 52.4299 51.2 53.081 51.2 53.76C51.2 54.439 51.4697 55.0901 51.9498 55.5702C52.4299 56.0503 53.081 56.32 53.76 56.32H56.32V51.2H53.76Z" fill="#18243D"/>
<path d="M58.88 51.2C59.559 51.2 60.2101 51.4697 60.6902 51.9498C61.1703 52.4299 61.44 53.081 61.44 53.76C61.44 54.439 61.1703 55.0901 60.6902 55.5702C60.2101 56.0503 59.559 56.32 58.88 56.32H56.32V51.2H58.88Z" fill="#18243D"/>
<path d="M66.56 51.2C66.56 52.5579 67.0994 53.8602 68.0596 54.8204C69.0198 55.7806 70.3221 56.32 71.68 56.32V51.2H66.56Z" fill="#18243D"/>
<path d="M71.68 51.2H76.8V56.32H71.68V51.2Z" fill="#18243D"/>
<path d="M76.8 51.2H81.92V56.32H76.8V51.2Z" fill="#18243D"/>
<path d="M81.92 51.2H87.04V56.32H81.92V51.2Z" fill="#18243D"/>
<path d="M87.04 51.2H92.16V56.32H87.04V51.2Z" fill="#18243D"/>
<path d="M92.16 51.2H97.28V56.32H92.16V51.2Z" fill="#18243D"/>
<path d="M97.28 51.2H102.4V56.32H97.28V51.2Z" fill="#18243D"/>
<path d="M107.52 53.76C107.52 53.081 107.79 52.4299 108.27 51.9498C108.75 51.4697 109.401 51.2 110.08 51.2C110.759 51.2 111.41 51.4697 111.89 51.9498C112.37 52.4299 112.64 53.081 112.64 53.76V56.32H107.52V53.76Z" fill="#18243D"/>
<path d="M122.88 53.76C122.88 54.439 123.15 55.0901 123.63 55.5702C124.11 56.0503 124.761 56.32 125.44 56.32C126.119 56.32 126.77 56.0503 127.25 55.5702C127.73 55.0901 128 54.439 128 53.76V51.2H122.88V53.76Z" fill="#18243D"/>
<path d="M0 58.88C0 58.201 0.269714 57.5499 0.749807 57.0698C1.2299 56.5897 1.88105 56.32 2.56 56.32C3.23895 56.32 3.8901 56.5897 4.37019 57.0698C4.85029 57.5499 5.12 58.201 5.12 58.88V61.44H0V58.88Z" fill="#18243D"/>
<path d="M10.24 56.32C10.24 57.6779 10.7794 58.9802 11.7396 59.9404C12.6998 60.9006 14.0021 61.44 15.36 61.44V56.32H10.24Z" fill="#18243D"/>
<path d="M15.36 61.44C16.7179 61.44 18.0202 60.9006 18.9804 59.9404C19.9406 58.9802 20.48 57.6779 20.48 56.32H15.36V61.44Z" fill="#18243D"/>
<path d="M40.96 58.88C40.96 59.559 41.2297 60.2101 41.7098 60.6902C42.1899 61.1703 42.841 61.44 43.52 61.44C44.199 61.44 44.8501 61.1703 45.3302 60.6902C45.8103 60.2101 46.08 59.559 46.08 58.88V56.32H40.96V58.88Z" fill="#18243D"/>
<path d="M61.44 58.88C61.44 58.201 61.7097 57.5499 62.1898 57.0698C62.6699 56.5897 63.321 56.32 64 56.32C64.679 56.32 65.3301 56.5897 65.8102 57.0698C66.2903 57.5499 66.56 58.201 66.56 58.88V61.44H61.44V58.88Z" fill="#18243D"/>
<path d="M81.92 56.32C81.92 57.6779 82.4594 58.9802 83.4196 59.9404C84.3798 60.9006 85.6821 61.44 87.04 61.44V56.32H81.92Z" fill="#18243D"/>
<path d="M87.04 56.32H92.16V61.44H87.04V56.32Z" fill="#18243D"/>
<path d="M97.28 56.32H102.4V61.44H97.28V56.32Z" fill="#18243D"/>
<path d="M102.4 56.32H107.52V61.44H102.4V56.32Z" fill="#18243D"/>
<path d="M107.52 61.44C108.878 61.44 110.18 60.9006 111.14 59.9404C112.101 58.9802 112.64 57.6779 112.64 56.32H107.52V61.44Z" fill="#18243D"/>
<path d="M117.76 58.88C117.76 58.201 118.03 57.5499 118.51 57.0698C118.99 56.5897 119.641 56.32 120.32 56.32C120.999 56.32 121.65 56.5897 122.13 57.0698C122.61 57.5499 122.88 58.201 122.88 58.88V61.44H117.76V58.88Z" fill="#18243D"/>
<path d="M0 61.44C0 62.7979 0.539427 64.1002 1.49961 65.0604C2.4598 66.0206 3.76209 66.56 5.12 66.56V61.44H0Z" fill="#18243D"/>
<path d="M5.12 61.44C6.47791 61.44 7.7802 61.9794 8.74039 62.9396C9.70057 63.8998 10.24 65.2021 10.24 66.56H5.12V61.44Z" fill="#18243D"/>
<path d="M33.28 61.44C32.601 61.44 31.9499 61.7097 31.4698 62.1898C30.9897 62.6699 30.72 63.321 30.72 64C30.72 64.679 30.9897 65.3301 31.4698 65.8102C31.9499 66.2903 32.601 66.56 33.28 66.56H35.84V61.44H33.28Z" fill="#18243D"/>
<path d="M38.4 61.44C39.079 61.44 39.7301 61.7097 40.2102 62.1898C40.6903 62.6699 40.96 63.321 40.96 64C40.96 64.679 40.6903 65.3301 40.2102 65.8102C39.7301 66.2903 39.079 66.56 38.4 66.56H35.84V61.44H38.4Z" fill="#18243D"/>
<path d="M53.76 61.44C54.439 61.44 55.0901 61.7097 55.5702 62.1898C56.0503 62.6699 56.32 63.321 56.32 64C56.32 64.679 56.0503 65.3301 55.5702 65.8102C55.0901 66.2903 54.439 66.56 53.76 66.56C53.081 66.56 52.4299 66.2903 51.9498 65.8102C51.4697 65.3301 51.2 64.679 51.2 64C51.2 63.321 51.4697 62.6699 51.9498 62.1898C52.4299 61.7097 53.081 61.44 53.76 61.44Z" fill="#18243D"/>
<path d="M61.44 61.44H66.56V66.56H61.44V61.44Z" fill="#18243D"/>
<path d="M69.12 61.44C69.799 61.44 70.4501 61.7097 70.9302 62.1898C71.4103 62.6699 71.68 63.321 71.68 64C71.68 64.679 71.4103 65.3301 70.9302 65.8102C70.4501 66.2903 69.799 66.56 69.12 66.56H66.56V61.44H69.12Z" fill="#18243D"/>
<path d="M87.04 61.44H92.16V66.56H87.04V61.44Z" fill="#18243D"/>
<path d="M92.16 61.44H97.28V66.56H92.16V61.44Z" fill="#18243D"/>
<path d="M97.28 61.44H102.4V66.56H97.28V61.44Z" fill="#18243D"/>
<path d="M102.4 66.56C103.758 66.56 105.06 66.0206 106.02 65.0604C106.981 64.1002 107.52 62.7979 107.52 61.44H102.4V66.56Z" fill="#18243D"/>
<path d="M117.76 61.44C117.76 62.7979 118.299 64.1002 119.26 65.0604C120.22 66.0206 121.522 66.56 122.88 66.56V61.44H117.76Z" fill="#18243D"/>
<path d="M122.88 61.44C124.238 61.44 125.54 61.9794 126.5 62.9396C127.461 63.8998 128 65.2021 128 66.56H122.88V61.44Z" fill="#18243D"/>
<path d="M5.12 66.56H10.24V71.68H5.12V66.56Z" fill="#18243D"/>
<path d="M17.92 66.56C18.599 66.56 19.2501 66.8297 19.7302 67.3098C20.2103 67.7899 20.48 68.441 20.48 69.12C20.48 69.799 20.2103 70.4501 19.7302 70.9302C19.2501 71.4103 18.599 71.68 17.92 71.68C17.241 71.68 16.5899 71.4103 16.1098 70.9302C15.6297 70.4501 15.36 69.799 15.36 69.12C15.36 68.441 15.6297 67.7899 16.1098 67.3098C16.5899 66.8297 17.241 66.56 17.92 66.56Z" fill="#18243D"/>
<path d="M25.6 69.12C25.6 68.441 25.8697 67.7899 26.3498 67.3098C26.8299 66.8297 27.481 66.56 28.16 66.56C28.839 66.56 29.4901 66.8297 29.9702 67.3098C30.4503 67.7899 30.72 68.441 30.72 69.12V71.68H25.6V69.12Z" fill="#18243D"/>
<path d="M46.08 69.12C46.08 68.441 46.3497 67.7899 46.8298 67.3098C47.3099 66.8297 47.961 66.56 48.64 66.56C49.319 66.56 49.9701 66.8297 50.4502 67.3098C50.9303 67.7899 51.2 68.441 51.2 69.12V71.68H46.08V69.12Z" fill="#18243D"/>
<path d="M58.88 66.56C58.201 66.56 57.5499 66.8297 57.0698 67.3098C56.5897 67.7899 56.32 68.441 56.32 69.12C56.32 69.799 56.5897 70.4501 57.0698 70.9302C57.5499 71.4103 58.201 71.68 58.88 71.68H61.44V66.56H58.88Z" fill="#18243D"/>
<path d="M61.44 66.56H66.56V71.68H61.44V66.56Z" fill="#18243D"/>
<path d="M87.04 69.12C87.04 69.799 87.3097 70.4501 87.7898 70.9302C88.2699 71.4103 88.9211 71.68 89.6 71.68C90.279 71.68 90.9301 71.4103 91.4102 70.9302C91.8903 70.4501 92.16 69.799 92.16 69.12V66.56H87.04V69.12Z" fill="#18243D"/>
<path d="M122.88 66.56H128V71.68H122.88V66.56Z" fill="#18243D"/>
<path d="M2.56 71.68C1.88105 71.68 1.2299 71.9497 0.749807 72.4298C0.269714 72.9099 0 73.5611 0 74.24C0 74.919 0.269714 75.5701 0.749807 76.0502C1.2299 76.5303 1.88105 76.8 2.56 76.8H5.12V71.68H2.56Z" fill="#18243D"/>
<path d="M5.12 76.8C6.47791 76.8 7.7802 76.2606 8.74039 75.3004C9.70057 74.3402 10.24 73.0379 10.24 71.68H5.12V76.8Z" fill="#18243D"/>
<path d="M20.48 76.8C20.48 75.4421 21.0194 74.1398 21.9796 73.1796C22.9398 72.2194 24.2421 71.68 25.6 71.68V76.8H20.48Z" fill="#18243D"/>
<path d="M25.6 71.68H30.72V76.8H25.6V71.68Z" fill="#18243D"/>
<path d="M30.72 71.68H35.84V76.8H30.72V71.68Z" fill="#18243D"/>
<path d="M35.84 71.68C37.1979 71.68 38.5002 72.2194 39.4604 73.1796C40.4206 74.1398 40.96 75.4421 40.96 76.8H35.84V71.68Z" fill="#18243D"/>
<path d="M46.08 74.24C46.08 74.919 46.3497 75.5701 46.8298 76.0502C47.3099 76.5303 47.961 76.8 48.64 76.8C49.319 76.8 49.9701 76.5303 50.4502 76.0502C50.9303 75.5701 51.2 74.919 51.2 74.24V71.68H46.08V74.24Z" fill="#18243D"/>
<path d="M61.44 74.24C61.44 74.919 61.7097 75.5701 62.1898 76.0502C62.6699 76.5303 63.321 76.8 64 76.8C64.679 76.8 65.3301 76.5303 65.8102 76.0502C66.2903 75.5701 66.56 74.919 66.56 74.24V71.68H61.44V74.24Z" fill="#18243D"/>
<path d="M79.36 71.68C80.039 71.68 80.6901 71.9497 81.1702 72.4298C81.6503 72.9099 81.92 73.5611 81.92 74.24C81.92 74.919 81.6503 75.5701 81.1702 76.0502C80.6901 76.5303 80.039 76.8 79.36 76.8C78.6811 76.8 78.0299 76.5303 77.5498 76.0502C77.0697 75.5701 76.8 74.919 76.8 74.24C76.8 73.5611 77.0697 72.9099 77.5498 72.4298C78.0299 71.9497 78.6811 71.68 79.36 71.68Z" fill="#18243D"/>
<path d="M102.4 74.24C102.4 73.5611 102.67 72.9099 103.15 72.4298C103.63 71.9497 104.281 71.68 104.96 71.68C105.639 71.68 106.29 71.9497 106.77 72.4298C107.25 72.9099 107.52 73.5611 107.52 74.24V76.8H102.4V74.24Z" fill="#18243D"/>
<path d="M122.88 71.68H128V76.8H122.88V71.68Z" fill="#18243D"/>
<path d="M15.36 81.92C15.36 80.5621 15.8994 79.2598 16.8596 78.2996C17.8198 77.3394 19.1221 76.8 20.48 76.8V81.92H15.36Z" fill="#18243D"/>
<path d="M20.48 76.8H25.6V81.92H20.48V76.8Z" fill="#18243D"/>
<path d="M35.84 76.8C35.84 78.1579 36.3794 79.4602 37.3396 80.4204C38.2998 81.3806 39.6021 81.92 40.96 81.92V76.8H35.84Z" fill="#18243D"/>
<path d="M40.96 76.8C42.3179 76.8 43.6202 77.3394 44.5804 78.2996C45.5406 79.2598 46.08 80.5621 46.08 81.92H40.96V76.8Z" fill="#18243D"/>
<path d="M58.88 76.8C59.559 76.8 60.2101 77.0697 60.6902 77.5498C61.1703 78.0299 61.44 78.6811 61.44 79.36C61.44 80.039 61.1703 80.6901 60.6902 81.1702C60.2101 81.6503 59.559 81.92 58.88 81.92C58.201 81.92 57.5499 81.6503 57.0698 81.1702C56.5897 80.6901 56.32 80.039 56.32 79.36C56.32 78.6811 56.5897 78.0299 57.0698 77.5498C57.5499 77.0697 58.201 76.8 58.88 76.8Z" fill="#18243D"/>
<path d="M69.12 76.8C68.441 76.8 67.7899 77.0697 67.3098 77.5498C66.8297 78.0299 66.56 78.6811 66.56 79.36C66.56 80.039 66.8297 80.6901 67.3098 81.1702C67.7899 81.6503 68.441 81.92 69.12 81.92H71.68V76.8H69.12Z" fill="#18243D"/>
<path d="M71.68 76.8C73.0379 76.8 74.3402 77.3394 75.3004 78.2996C76.2606 79.2598 76.8 80.5621 76.8 81.92H71.68V76.8Z" fill="#18243D"/>
<path d="M92.16 81.92C92.16 80.5621 92.6994 79.2598 93.6596 78.2996C94.6198 77.3394 95.9221 76.8 97.28 76.8V81.92H92.16Z" fill="#18243D"/>
<path d="M97.28 76.8H102.4V81.92H97.28V76.8Z" fill="#18243D"/>
<path d="M102.4 76.8H107.52V81.92H102.4V76.8Z" fill="#18243D"/>
<path d="M117.76 81.92C117.76 80.5621 118.299 79.2598 119.26 78.2996C120.22 77.3394 121.522 76.8 122.88 76.8V81.92H117.76Z" fill="#18243D"/>
<path d="M122.88 76.8H128V81.92H122.88V76.8Z" fill="#18243D"/>
<path d="M2.56 81.92C1.88105 81.92 1.2299 82.1897 0.749807 82.6698C0.269714 83.1499 0 83.801 0 84.48C0 85.159 0.269714 85.8101 0.749807 86.2902C1.2299 86.7703 1.88105 87.04 2.56 87.04H5.12V81.92H2.56Z" fill="#18243D"/>
<path d="M5.12 81.92H10.24V87.04H5.12V81.92Z" fill="#18243D"/>
<path d="M10.24 81.92H15.36V87.04H10.24V81.92Z" fill="#18243D"/>
<path d="M15.36 81.92H20.48V87.04H15.36V81.92Z" fill="#18243D"/>
<path d="M20.48 87.04C21.8379 87.04 23.1402 86.5006 24.1004 85.5404C25.0606 84.5802 25.6 83.2779 25.6 81.92H20.48V87.04Z" fill="#18243D"/>
<path d="M33.28 81.92C33.959 81.92 34.6101 82.1897 35.0902 82.6698C35.5703 83.1499 35.84 83.801 35.84 84.48C35.84 85.159 35.5703 85.8101 35.0902 86.2902C34.6101 86.7703 33.959 87.04 33.28 87.04C32.601 87.04 31.9499 86.7703 31.4698 86.2902C30.9897 85.8101 30.72 85.159 30.72 84.48C30.72 83.801 30.9897 83.1499 31.4698 82.6698C31.9499 82.1897 32.601 81.92 33.28 81.92Z" fill="#18243D"/>
<path d="M40.96 81.92H46.08V87.04H40.96V81.92Z" fill="#18243D"/>
<path d="M71.68 81.92C71.68 83.2779 72.2194 84.5802 73.1796 85.5404C74.1398 86.5006 75.4421 87.04 76.8 87.04V81.92H71.68Z" fill="#18243D"/>
<path d="M76.8 81.92H81.92V87.04H76.8V81.92Z" fill="#18243D"/>
<path d="M81.92 81.92H87.04V87.04H81.92V81.92Z" fill="#18243D"/>
<path d="M87.04 81.92H92.16V87.04H87.04V81.92Z" fill="#18243D"/>
<path d="M92.16 81.92H97.28V87.04H92.16V81.92Z" fill="#18243D"/>
<path d="M97.28 81.92H102.4V87.04H97.28V81.92Z" fill="#18243D"/>
<path d="M102.4 81.92H107.52V87.04H102.4V81.92Z" fill="#18243D"/>
<path d="M107.52 81.92C108.878 81.92 110.18 82.4594 111.14 83.4196C112.101 84.3798 112.64 85.6821 112.64 87.04H107.52V81.92Z" fill="#18243D"/>
<path d="M117.76 81.92C117.76 83.2779 118.299 84.5802 119.26 85.5404C120.22 86.5006 121.522 87.04 122.88 87.04V81.92H117.76Z" fill="#18243D"/>
<path d="M122.88 81.92H128V87.04H122.88V81.92Z" fill="#18243D"/>
<path d="M40.96 87.04H46.08V92.16H40.96V87.04Z" fill="#18243D"/>
<path d="M53.76 87.04C54.439 87.04 55.0901 87.3097 55.5702 87.7898C56.0503 88.2699 56.32 88.9211 56.32 89.6C56.32 90.279 56.0503 90.9301 55.5702 91.4102C55.0901 91.8903 54.439 92.16 53.76 92.16C53.081 92.16 52.4299 91.8903 51.9498 91.4102C51.4697 90.9301 51.2 90.279 51.2 89.6C51.2 88.9211 51.4697 88.2699 51.9498 87.7898C52.4299 87.3097 53.081 87.04 53.76 87.04Z" fill="#18243D"/>
<path d="M69.12 87.04C69.799 87.04 70.4501 87.3097 70.9302 87.7898C71.4103 88.2699 71.68 88.9211 71.68 89.6C71.68 90.279 71.4103 90.9301 70.9302 91.4102C70.4501 91.8903 69.799 92.16 69.12 92.16C68.441 92.16 67.7899 91.8903 67.3098 91.4102C66.8297 90.9301 66.56 90.279 66.56 89.6C66.56 88.9211 66.8297 88.2699 67.3098 87.7898C67.7899 87.3097 68.441 87.04 69.12 87.04Z" fill="#18243D"/>
<path d="M81.92 87.04H87.04V92.16H81.92V87.04Z" fill="#18243D"/>
<path d="M102.4 87.04H107.52V92.16H102.4V87.04Z" fill="#18243D"/>
<path d="M107.52 87.04H112.64V92.16H107.52V87.04Z" fill="#18243D"/>
<path d="M115.2 87.04C115.879 87.04 116.53 87.3097 117.01 87.7898C117.49 88.2699 117.76 88.9211 117.76 89.6C117.76 90.279 117.49 90.9301 117.01 91.4102C116.53 91.8903 115.879 92.16 115.2 92.16H112.64V87.04H115.2Z" fill="#18243D"/>
<path d="M122.88 87.04H128V92.16H122.88V87.04Z" fill="#18243D"/>
<path d="M0 97.28C0 95.9221 0.539427 94.6198 1.49961 93.6596C2.4598 92.6994 3.76209 92.16 5.12 92.16V97.28H0Z" fill="#18243D"/>
<path d="M5.12 92.16H10.24V97.28H5.12V92.16Z" fill="#18243D"/>
<path d="M10.24 92.16H15.36V97.28H10.24V92.16Z" fill="#18243D"/>
<path d="M15.36 92.16H20.48V97.28H15.36V92.16Z" fill="#18243D"/>
<path d="M20.48 92.16H25.6V97.28H20.48V92.16Z" fill="#18243D"/>
<path d="M25.6 92.16H30.72V97.28H25.6V92.16Z" fill="#18243D"/>
<path d="M30.72 92.16C32.0779 92.16 33.3802 92.6994 34.3404 93.6596C35.3006 94.6198 35.84 95.9221 35.84 97.28H30.72V92.16Z" fill="#18243D"/>
<path d="M40.96 92.16H46.08V97.28H40.96V92.16Z" fill="#18243D"/>
<path d="M58.88 92.16C59.559 92.16 60.2101 92.4297 60.6902 92.9098C61.1703 93.3899 61.44 94.0411 61.44 94.72C61.44 95.399 61.1703 96.0501 60.6902 96.5302C60.2101 97.0103 59.559 97.28 58.88 97.28C58.201 97.28 57.5499 97.0103 57.0698 96.5302C56.5897 96.0501 56.32 95.399 56.32 94.72C56.32 94.0411 56.5897 93.3899 57.0698 92.9098C57.5499 92.4297 58.201 92.16 58.88 92.16Z" fill="#18243D"/>
<path d="M71.68 97.28C71.68 95.9221 72.2194 94.6198 73.1796 93.6596C74.1398 92.6994 75.4421 92.16 76.8 92.16V97.28H71.68Z" fill="#18243D"/>
<path d="M76.8 92.16H81.92V97.28H76.8V92.16Z" fill="#18243D"/>
<path d="M81.92 92.16H87.04V97.28H81.92V92.16Z" fill="#18243D"/>
<path d="M94.72 92.16C95.399 92.16 96.0501 92.4297 96.5302 92.9098C97.0103 93.3899 97.28 94.0411 97.28 94.72C97.28 95.399 97.0103 96.0501 96.5302 96.5302C96.0501 97.0103 95.399 97.28 94.72 97.28C94.0411 97.28 93.3899 97.0103 92.9098 96.5302C92.4297 96.0501 92.16 95.399 92.16 94.72C92.16 94.0411 92.4297 93.3899 92.9098 92.9098C93.3899 92.4297 94.0411 92.16 94.72 92.16Z" fill="#18243D"/>
<path d="M102.4 92.16H107.52V97.28H102.4V92.16Z" fill="#18243D"/>
<path d="M107.52 92.16H112.64V97.28H107.52V92.16Z" fill="#18243D"/>
<path d="M122.88 94.72C122.88 95.399 123.15 96.0501 123.63 96.5302C124.11 97.0103 124.761 97.28 125.44 97.28C126.119 97.28 126.77 97.0103 127.25 96.5302C127.73 96.0501 128 95.399 128 94.72V92.16H122.88V94.72Z" fill="#18243D"/>
<path d="M0 97.28H5.12V102.4H0V97.28Z" fill="#18243D"/>
<path d="M30.72 97.28H35.84V102.4H30.72V97.28Z" fill="#18243D"/>
<path d="M40.96 97.28C40.96 98.6379 41.4994 99.9402 42.4596 100.9C43.4198 101.861 44.7221 102.4 46.08 102.4V97.28H40.96Z" fill="#18243D"/>
<path d="M48.64 97.28C49.319 97.28 49.9701 97.5497 50.4502 98.0298C50.9303 98.5099 51.2 99.161 51.2 99.84C51.2 100.519 50.9303 101.17 50.4502 101.65C49.9701 102.13 49.319 102.4 48.64 102.4H46.08V97.28H48.64Z" fill="#18243D"/>
<path d="M71.68 97.28C71.68 98.6379 72.2194 99.9402 73.1796 100.9C74.1398 101.861 75.4421 102.4 76.8 102.4V97.28H71.68Z" fill="#18243D"/>
<path d="M76.8 97.28H81.92V102.4H76.8V97.28Z" fill="#18243D"/>
<path d="M81.92 97.28H87.04V102.4H81.92V97.28Z" fill="#18243D"/>
<path d="M102.4 97.28H107.52V102.4H102.4V97.28Z" fill="#18243D"/>
<path d="M107.52 97.28H112.64V102.4H107.52V97.28Z" fill="#18243D"/>
<path d="M0 102.4H5.12V107.52H0V102.4Z" fill="#18243D"/>
<path d="M10.24 107.52C10.24 106.162 10.7794 104.86 11.7396 103.9C12.6998 102.939 14.0021 102.4 15.36 102.4V107.52H10.24Z" fill="#18243D"/>
<path d="M15.36 102.4H20.48V107.52H15.36V102.4Z" fill="#18243D"/>
<path d="M20.48 102.4C21.8379 102.4 23.1402 102.939 24.1004 103.9C25.0606 104.86 25.6 106.162 25.6 107.52H20.48V102.4Z" fill="#18243D"/>
<path d="M30.72 102.4H35.84V107.52H30.72V102.4Z" fill="#18243D"/>
<path d="M51.2 104.96C51.2 104.281 51.4697 103.63 51.9498 103.15C52.4299 102.67 53.081 102.4 53.76 102.4C54.439 102.4 55.0901 102.67 55.5702 103.15C56.0503 103.63 56.32 104.281 56.32 104.96V107.52H51.2V104.96Z" fill="#18243D"/>
<path d="M69.12 102.4C69.799 102.4 70.4501 102.67 70.9302 103.15C71.4103 103.63 71.68 104.281 71.68 104.96C71.68 105.639 71.4103 106.29 70.9302 106.77C70.4501 107.25 69.799 107.52 69.12 107.52C68.441 107.52 67.7899 107.25 67.3098 106.77C66.8297 106.29 66.56 105.639 66.56 104.96C66.56 104.281 66.8297 103.63 67.3098 103.15C67.7899 102.67 68.441 102.4 69.12 102.4Z" fill="#18243D"/>
<path d="M81.92 102.4H87.04V107.52H81.92V102.4Z" fill="#18243D"/>
<path d="M87.04 102.4H92.16V107.52H87.04V102.4Z" fill="#18243D"/>
<path d="M92.16 102.4H97.28V107.52H92.16V102.4Z" fill="#18243D"/>
<path d="M97.28 102.4H102.4V107.52H97.28V102.4Z" fill="#18243D"/>
<path d="M102.4 102.4H107.52V107.52H102.4V102.4Z" fill="#18243D"/>
<path d="M107.52 107.52C108.878 107.52 110.18 106.981 111.14 106.02C112.101 105.06 112.64 103.758 112.64 102.4H107.52V107.52Z" fill="#18243D"/>
<path d="M120.32 102.4C120.999 102.4 121.65 102.67 122.13 103.15C122.61 103.63 122.88 104.281 122.88 104.96C122.88 105.639 122.61 106.29 122.13 106.77C121.65 107.25 120.999 107.52 120.32 107.52C119.641 107.52 118.99 107.25 118.51 106.77C118.03 106.29 117.76 105.639 117.76 104.96C117.76 104.281 118.03 103.63 118.51 103.15C118.99 102.67 119.641 102.4 120.32 102.4Z" fill="#18243D"/>
<path d="M0 107.52H5.12V112.64H0V107.52Z" fill="#18243D"/>
<path d="M10.24 107.52H15.36V112.64H10.24V107.52Z" fill="#18243D"/>
<path d="M15.36 107.52H20.48V112.64H15.36V107.52Z" fill="#18243D"/>
<path d="M20.48 107.52H25.6V112.64H20.48V107.52Z" fill="#18243D"/>
<path d="M30.72 107.52H35.84V112.64H30.72V107.52Z" fill="#18243D"/>
<path d="M46.08 112.64C46.08 111.282 46.6194 109.98 47.5796 109.02C48.5398 108.059 49.8421 107.52 51.2 107.52V112.64H46.08Z" fill="#18243D"/>
<path d="M51.2 107.52H56.32V112.64H51.2V107.52Z" fill="#18243D"/>
<path d="M58.88 107.52C59.559 107.52 60.2101 107.79 60.6902 108.27C61.1703 108.75 61.44 109.401 61.44 110.08C61.44 110.759 61.1703 111.41 60.6902 111.89C60.2101 112.37 59.559 112.64 58.88 112.64H56.32V107.52H58.88Z" fill="#18243D"/>
<path d="M71.68 110.08C71.68 109.401 71.9497 108.75 72.4298 108.27C72.9099 107.79 73.5611 107.52 74.24 107.52C74.919 107.52 75.5701 107.79 76.0502 108.27C76.5303 108.75 76.8 109.401 76.8 110.08V112.64H71.68V110.08Z" fill="#18243D"/>
<path d="M81.92 107.52C81.92 108.878 82.4594 110.18 83.4196 111.14C84.3798 112.101 85.6821 112.64 87.04 112.64V107.52H81.92Z" fill="#18243D"/>
<path d="M87.04 107.52H92.16V112.64H87.04V107.52Z" fill="#18243D"/>
<path d="M92.16 107.52H97.28V112.64H92.16V107.52Z" fill="#18243D"/>
<path d="M102.4 107.52H107.52V112.64H102.4V107.52Z" fill="#18243D"/>
<path d="M0 112.64H5.12V117.76H0V112.64Z" fill="#18243D"/>
<path d="M10.24 112.64C10.24 113.998 10.7794 115.3 11.7396 116.26C12.6998 117.221 14.0021 117.76 15.36 117.76V112.64H10.24Z" fill="#18243D"/>
<path d="M15.36 112.64H20.48V117.76H15.36V112.64Z" fill="#18243D"/>
<path d="M20.48 117.76C21.8379 117.76 23.1402 117.221 24.1004 116.26C25.0606 115.3 25.6 113.998 25.6 112.64H20.48V117.76Z" fill="#18243D"/>
<path d="M30.72 112.64H35.84V117.76H30.72V112.64Z" fill="#18243D"/>
<path d="M43.52 112.64C42.841 112.64 42.1899 112.91 41.7098 113.39C41.2297 113.87 40.96 114.521 40.96 115.2C40.96 115.879 41.2297 116.53 41.7098 117.01C42.1899 117.49 42.841 117.76 43.52 117.76H46.08V112.64H43.52Z" fill="#18243D"/>
<path d="M46.08 112.64H51.2V117.76H46.08V112.64Z" fill="#18243D"/>
<path d="M51.2 112.64H56.32V117.76H51.2V112.64Z" fill="#18243D"/>
<path d="M64 112.64C63.321 112.64 62.6699 112.91 62.1898 113.39C61.7097 113.87 61.44 114.521 61.44 115.2C61.44 115.879 61.7097 116.53 62.1898 117.01C62.6699 117.49 63.321 117.76 64 117.76H66.56V112.64H64Z" fill="#18243D"/>
<path d="M66.56 112.64H71.68V117.76H66.56V112.64Z" fill="#18243D"/>
<path d="M71.68 117.76C73.0379 117.76 74.3402 117.221 75.3004 116.26C76.2606 115.3 76.8 113.998 76.8 112.64H71.68V117.76Z" fill="#18243D"/>
<path d="M87.04 112.64C87.04 113.998 87.5794 115.3 88.5396 116.26C89.4998 117.221 90.8021 117.76 92.16 117.76V112.64H87.04Z" fill="#18243D"/>
<path d="M92.16 117.76C93.5179 117.76 94.8202 117.221 95.7804 116.26C96.7406 115.3 97.28 113.998 97.28 112.64H92.16V117.76Z" fill="#18243D"/>
<path d="M102.4 112.64H107.52V117.76H102.4V112.64Z" fill="#18243D"/>
<path d="M120.32 112.64C119.641 112.64 118.99 112.91 118.51 113.39C118.03 113.87 117.76 114.521 117.76 115.2C117.76 115.879 118.03 116.53 118.51 117.01C118.99 117.49 119.641 117.76 120.32 117.76H122.88V112.64H120.32Z" fill="#18243D"/>
<path d="M125.44 112.64C126.119 112.64 126.77 112.91 127.25 113.39C127.73 113.87 128 114.521 128 115.2C128 115.879 127.73 116.53 127.25 117.01C126.77 117.49 126.119 117.76 125.44 117.76H122.88V112.64H125.44Z" fill="#18243D"/>
<path d="M0 117.76H5.12V122.88H0V117.76Z" fill="#18243D"/>
<path d="M30.72 117.76H35.84V122.88H30.72V117.76Z" fill="#18243D"/>
<path d="M46.08 117.76H51.2V122.88H46.08V117.76Z" fill="#18243D"/>
<path d="M51.2 117.76H56.32V122.88H51.2V117.76Z" fill="#18243D"/>
<path d="M58.88 117.76C59.559 117.76 60.2101 118.03 60.6902 118.51C61.1703 118.99 61.44 119.641 61.44 120.32C61.44 120.999 61.1703 121.65 60.6902 122.13C60.2101 122.61 59.559 122.88 58.88 122.88H56.32V117.76H58.88Z" fill="#18243D"/>
<path d="M76.8 120.32C76.8 119.641 77.0697 118.99 77.5498 118.51C78.0299 118.03 78.6811 117.76 79.36 117.76C80.039 117.76 80.6901 118.03 81.1702 118.51C81.6503 118.99 81.92 119.641 81.92 120.32V122.88H76.8V120.32Z" fill="#18243D"/>
<path d="M99.84 117.76C99.161 117.76 98.5099 118.03 98.0298 118.51C97.5497 118.99 97.28 119.641 97.28 120.32C97.28 120.999 97.5497 121.65 98.0298 122.13C98.5099 122.61 99.161 122.88 99.84 122.88H102.4V117.76H99.84Z" fill="#18243D"/>
<path d="M102.4 117.76H107.52V122.88H102.4V117.76Z" fill="#18243D"/>
<path d="M107.52 117.76C108.878 117.76 110.18 118.299 111.14 119.26C112.101 120.22 112.64 121.522 112.64 122.88H107.52V117.76Z" fill="#18243D"/>
<path d="M0 122.88C0 124.238 0.539427 125.54 1.49961 126.5C2.4598 127.461 3.76209 128 5.12 128V122.88H0Z" fill="#18243D"/>
<path d="M5.12 122.88H10.24V128H5.12V122.88Z" fill="#18243D"/>
<path d="M10.24 122.88H15.36V128H10.24V122.88Z" fill="#18243D"/>
<path d="M15.36 122.88H20.48V128H15.36V122.88Z" fill="#18243D"/>
<path d="M20.48 122.88H25.6V128H20.48V122.88Z" fill="#18243D"/>
<path d="M25.6 122.88H30.72V128H25.6V122.88Z" fill="#18243D"/>
<path d="M30.72 128C32.0779 128 33.3802 127.461 34.3404 126.5C35.3006 125.54 35.84 124.238 35.84 122.88H30.72V128Z" fill="#18243D"/>
<path d="M46.08 125.44C46.08 126.119 46.3497 126.77 46.8298 127.25C47.3099 127.73 47.961 128 48.64 128C49.319 128 49.9701 127.73 50.4502 127.25C50.9303 126.77 51.2 126.119 51.2 125.44V122.88H46.08V125.44Z" fill="#18243D"/>
<path d="M64 122.88C63.321 122.88 62.6699 123.15 62.1898 123.63C61.7097 124.11 61.44 124.761 61.44 125.44C61.44 126.119 61.7097 126.77 62.1898 127.25C62.6699 127.73 63.321 128 64 128H66.56V122.88H64Z" fill="#18243D"/>
<path d="M66.56 122.88H71.68V128H66.56V122.88Z" fill="#18243D"/>
<path d="M71.68 122.88H76.8V128H71.68V122.88Z" fill="#18243D"/>
<path d="M76.8 122.88H81.92V128H76.8V122.88Z" fill="#18243D"/>
<path d="M84.48 122.88C85.159 122.88 85.8101 123.15 86.2902 123.63C86.7703 124.11 87.04 124.761 87.04 125.44C87.04 126.119 86.7703 126.77 86.2902 127.25C85.8101 127.73 85.159 128 84.48 128H81.92V122.88H84.48Z" fill="#18243D"/>
<path d="M94.72 122.88C95.399 122.88 96.0501 123.15 96.5302 123.63C97.0103 124.11 97.28 124.761 97.28 125.44C97.28 126.119 97.0103 126.77 96.5302 127.25C96.0501 127.73 95.399 128 94.72 128C94.0411 128 93.3899 127.73 92.9098 127.25C92.4297 126.77 92.16 126.119 92.16 125.44C92.16 124.761 92.4297 124.11 92.9098 123.63C93.3899 123.15 94.0411 122.88 94.72 122.88Z" fill="#18243D"/>
<path d="M107.52 125.44C107.52 126.119 107.79 126.77 108.27 127.25C108.75 127.73 109.401 128 110.08 128C110.759 128 111.41 127.73 111.89 127.25C112.37 126.77 112.64 126.119 112.64 125.44V122.88H107.52V125.44Z" fill="#18243D"/>
<path d="M125.44 122.88C126.119 122.88 126.77 123.15 127.25 123.63C127.73 124.11 128 124.761 128 125.44C128 126.119 127.73 126.77 127.25 127.25C126.77 127.73 126.119 128 125.44 128C124.761 128 124.11 127.73 123.63 127.25C123.15 126.77 122.88 126.119 122.88 125.44C122.88 124.761 123.15 124.11 123.63 123.63C124.11 123.15 124.761 122.88 125.44 122.88Z" fill="#18243D"/>
</svg>
