<svg width="18" height="19" viewBox="0 0 18 19" fill="none" xmlns="http://www.w3.org/2000/svg">
<path d="M16.2526 5.71206C15.7726 4.08456 14.4151 2.72706 12.7876 2.24706C11.5501 1.88706 10.6951 1.91706 10.1026 2.35956C9.39012 2.89206 9.30762 3.85206 9.30762 4.53456V6.40206C9.30762 8.24706 10.1476 9.18456 11.7976 9.18456H13.9501C14.6251 9.18456 15.5926 9.10206 16.1251 8.38956C16.5826 7.80456 16.6201 6.94956 16.2526 5.71206Z" fill="currentColor"/>
<path d="M14.1825 10.5199C13.9875 10.2949 13.7025 10.1674 13.41 10.1674H10.725C9.40505 10.1674 8.33255 9.09487 8.33255 7.77487V5.08987C8.33255 4.79737 8.20505 4.51237 7.98005 4.31737C7.76255 4.12237 7.46255 4.03237 7.17755 4.06987C5.41505 4.29487 3.79505 5.26237 2.73755 6.71737C1.67255 8.17987 1.28255 9.96487 1.62005 11.7499C2.10755 14.3299 4.17005 16.3924 6.75755 16.8799C7.17005 16.9624 7.58255 16.9999 7.99505 16.9999C9.35255 16.9999 10.665 16.5799 11.7825 15.7624C13.2375 14.7049 14.205 13.0849 14.43 11.3224C14.4675 11.0299 14.3775 10.7374 14.1825 10.5199Z" fill="currentColor"/>
</svg>
