<svg width="18" height="19" viewBox="0 0 18 19" fill="none" xmlns="http://www.w3.org/2000/svg">
<path d="M12.75 2.32227H5.25C3 2.32227 1.5 3.82227 1.5 6.07227V10.5723C1.5 12.8223 3 14.3223 5.25 14.3223V15.9198C5.25 16.5198 5.9175 16.8798 6.4125 16.5423L9.75 14.3223H12.75C15 14.3223 16.5 12.8223 16.5 10.5723V6.07227C16.5 3.82227 15 2.32227 12.75 2.32227ZM9 11.4498C8.685 11.4498 8.4375 11.1948 8.4375 10.8873C8.4375 10.5798 8.685 10.3248 9 10.3248C9.315 10.3248 9.5625 10.5798 9.5625 10.8873C9.5625 11.1948 9.315 11.4498 9 11.4498ZM9.945 8.33727C9.6525 8.53227 9.5625 8.65977 9.5625 8.86977V9.02727C9.5625 9.33477 9.3075 9.58977 9 9.58977C8.6925 9.58977 8.4375 9.33477 8.4375 9.02727V8.86977C8.4375 7.99977 9.075 7.57227 9.315 7.40727C9.5925 7.21977 9.6825 7.09227 9.6825 6.89727C9.6825 6.52227 9.375 6.21477 9 6.21477C8.625 6.21477 8.3175 6.52227 8.3175 6.89727C8.3175 7.20477 8.0625 7.45977 7.755 7.45977C7.4475 7.45977 7.1925 7.20477 7.1925 6.89727C7.1925 5.89977 8.0025 5.08977 9 5.08977C9.9975 5.08977 10.8075 5.89977 10.8075 6.89727C10.8075 7.75226 10.1775 8.17977 9.945 8.33727Z" fill="currentColor"/>
</svg>
