<svg width="18" height="19" viewBox="0 0 18 19" fill="none" xmlns="http://www.w3.org/2000/svg">
<path d="M6.75 2C4.785 2 3.1875 3.5975 3.1875 5.5625C3.1875 7.49 4.695 9.05 6.66 9.1175C6.72 9.11 6.78 9.11 6.825 9.1175C6.84 9.1175 6.8475 9.1175 6.8625 9.1175C6.87 9.1175 6.87 9.1175 6.8775 9.1175C8.7975 9.05 10.305 7.49 10.3125 5.5625C10.3125 3.5975 8.715 2 6.75 2Z" fill="currentColor"/>
<path d="M10.56 11.1127C8.46747 9.71766 5.05497 9.71766 2.94747 11.1127C1.99497 11.7502 1.46997 12.6127 1.46997 13.5352C1.46997 14.4577 1.99497 15.3127 2.93997 15.9427C3.98997 16.6477 5.36997 17.0002 6.74997 17.0002C8.12997 17.0002 9.50997 16.6477 10.56 15.9427C11.505 15.3052 12.03 14.4502 12.03 13.5202C12.0225 12.5977 11.505 11.7427 10.56 11.1127Z" fill="currentColor"/>
<path d="M14.9925 6.00459C15.1125 7.45959 14.0775 8.73459 12.645 8.90709C12.6375 8.90709 12.6375 8.90709 12.63 8.90709H12.6075C12.5625 8.90709 12.5175 8.90709 12.48 8.92209C11.7525 8.95959 11.085 8.72709 10.5825 8.29959C11.355 7.60959 11.7975 6.57459 11.7075 5.44959C11.655 4.84209 11.445 4.28709 11.13 3.81459C11.415 3.67209 11.745 3.58209 12.0825 3.55209C13.5525 3.42459 14.865 4.51959 14.9925 6.00459Z" fill="currentColor"/>
<path d="M16.4924 12.9428C16.4324 13.6703 15.9674 14.3003 15.1874 14.7278C14.4374 15.1403 13.4924 15.3353 12.5549 15.3128C13.0949 14.8253 13.4099 14.2178 13.4699 13.5728C13.5449 12.6428 13.1024 11.7503 12.2174 11.0378C11.7149 10.6403 11.1299 10.3253 10.4924 10.0928C12.1499 9.6128 14.2349 9.9353 15.5174 10.9703C16.2074 11.5253 16.5599 12.2228 16.4924 12.9428Z" fill="currentColor"/>
</svg>
